<svg id="Layer_1" data-name="Layer 1" xmlns="http://www.w3.org/2000/svg" viewBox="0 0 443.28 106.23"><defs><style>.cls-1{fill:#444545;}</style></defs><path class="cls-1" d="M28.81,14.15H54.2c13.94,0,21.43,8,21.43,19.5,0,9.41-5.2,15.53-11.24,17.35,5.21,1.58,13.84,7.14,13.84,19.61,0,15.87-10.92,22.9-23.62,22.9H28.81ZM52.33,48.27c12.58,0,17.37-5.1,17.37-14.28,0-7.82-5-14.17-15.19-14.17H34.33V48.27Zm-18,39.57H54.82c9.57,0,17.58-5.21,17.58-16.89,0-10.09-5.93-17-20.59-17H34.33Z" transform="translate(-28.81 -9.95)"/><path class="cls-1" d="M92.38,10h5.2V21h-5.2Zm0,26.87h5.2V93.51h-5.2Z" transform="translate(-28.81 -9.95)"/><path class="cls-1" d="M107.56,36.82h9.68V19.14h5.2V36.82h12.38v5.33H122.44V79c0,6.35,1.25,10,6.24,10a18,18,0,0,0,5.41-.69v5a16.72,16.72,0,0,1-6.45,1c-6.65,0-10.4-3.62-10.4-12.69V42.15h-9.68Z" transform="translate(-28.81 -9.95)"/><path class="cls-1" d="M159.79,93.51,139.61,14.15h5.82C150.32,33.2,161.35,77.07,163,86.37h.11c1.35-7.37,13.31-51.25,18.41-72.22h6.24c4.79,19.39,16.44,66,17.59,72.1h.1c2.29-11.22,14.46-53.17,19.45-72.1h5.73L208.37,93.51h-6.45c-4.78-18.71-16.12-64.62-17.37-71.43h-.1c-1.88,10.32-13.11,51.7-18.31,71.43Z" transform="translate(-28.81 -9.95)"/><path class="cls-1" d="M271.42,82.74a69.32,69.32,0,0,0,.73,10.77h-5c-.41-1.36-.73-3.85-.93-8.73-1.77,4.2-6.35,10.09-17.07,10.09-12.06,0-17.27-8.5-17.27-17,0-12.47,8.85-18.14,24.45-18.14h9.89V53.94c0-5.67-1.56-13.26-13.42-13.26-10.51,0-12.07,6-13.22,10.65h-5.2c.63-6.23,4.16-15.87,18.52-15.87,11.86,0,18.52,5.44,18.52,17.92Zm-5.1-18.14H256.13c-11.55,0-18.73,3.29-18.73,13,0,7.14,4.68,12,12,12,14.88,0,17-10.78,17-23Z" transform="translate(-28.81 -9.95)"/><path class="cls-1" d="M288.58,52.24c0-9.52-.1-13.6-.1-15.42h5.1c.1,1.82.2,5.45.2,12.7,3-8.5,9.68-13.6,18.11-14.06v6.12c-10.82.8-18.11,9-18.11,22.45V93.51h-5.2Z" transform="translate(-28.81 -9.95)"/><path class="cls-1" d="M326.35,85.12v31.06h-5.2V50.77c0-4.65,0-9.64-.11-14h5.1c.21,2.16.21,5.56.21,10.21,3.22-6.81,8.94-11.57,18.31-11.57,12.27,0,20.8,11.23,20.8,28.23,0,20.41-10,31.18-22.57,31.18C333.73,94.87,329,90.45,326.35,85.12ZM360,63.92c0-13.15-5.82-23-16.12-23-12.59,0-17.79,8.62-17.79,24,0,15.19,4,24.6,17.06,24.6C353.92,89.54,360,79.56,360,63.92Z" transform="translate(-28.81 -9.95)"/><path class="cls-1" d="M380.24,65.85c.1,14.62,6.86,23.69,16.85,23.69,9.78,0,13.11-6,15-10.66h5.31c-2.19,7.49-7.7,16-20.5,16-15.81,0-21.95-14.85-21.95-29.25,0-16.21,7.39-30.16,22.58-30.16,16,0,21.12,15.08,21.12,25.74,0,1.59,0,3.17-.11,4.65Zm33-5c-.11-11.23-5.73-20.07-15.92-20.07-10.72,0-15.61,8.16-16.75,20.07Z" transform="translate(-28.81 -9.95)"/><path class="cls-1" d="M472,10V77.18c0,5.45,0,10.66.11,16.33h-5c-.2-1.36-.31-6.69-.31-9.52-2.6,6.91-8.42,10.88-17.48,10.88-13.52,0-21.64-12-21.64-29,0-17.46,8.85-30.39,23-30.39,10.4,0,14.56,4.88,16.12,8.51V10Zm-38.8,55.67c0,15.53,7.39,23.92,16.33,23.92,13.73,0,17.48-10.32,17.48-25.73,0-14.63-3.22-23-16.54-23C440.16,40.79,433.19,49.75,433.19,65.62Z" transform="translate(-28.81 -9.95)"/></svg>